<?xml version="1.0" encoding="UTF-8" ?>
<!DOCTYPE svg PUBLIC "-//W3C//DTD SVG 1.1//EN" "http://www.w3.org/Graphics/SVG/1.1/DTD/svg11.dtd">
<svg width="591pt" height="240pt" viewBox="0 0 591 240" version="1.1" xmlns="http://www.w3.org/2000/svg">
<g id="#ffffffff">
<path fill="#ffffff" opacity="1.00" d=" M 0.00 0.00 L 591.00 0.00 L 591.00 240.00 L 0.00 240.00 L 0.00 0.00 M 96.63 82.69 C 76.38 101.25 76.04 137.16 96.26 155.87 C 104.97 164.23 116.57 170.79 129.00 170.04 C 140.57 170.48 151.76 164.88 159.57 156.56 C 163.16 152.57 166.92 148.36 168.25 143.01 C 165.29 144.32 162.75 146.33 160.04 148.05 C 146.97 156.26 128.81 154.62 116.93 144.96 C 107.26 136.67 102.29 123.62 102.92 111.00 C 103.34 102.40 105.13 93.41 110.42 86.39 C 114.25 81.28 119.61 76.96 126.03 75.81 C 134.70 74.36 144.37 76.95 150.31 83.66 C 154.08 87.49 155.77 92.71 157.61 97.62 C 160.66 90.35 163.03 82.81 165.87 75.46 C 154.72 72.47 143.77 67.42 131.99 68.03 C 118.84 67.95 105.96 73.49 96.63 82.69 M 421.90 97.93 C 415.87 111.19 416.14 126.89 421.69 140.27 C 427.19 153.90 439.49 164.24 453.39 168.59 C 458.74 170.40 464.48 170.15 470.05 169.87 C 483.03 168.49 494.05 159.91 501.53 149.62 C 503.07 147.51 503.89 145.00 504.20 142.43 C 498.50 146.61 492.68 151.09 485.58 152.51 C 473.03 154.96 458.76 151.70 449.92 142.09 C 444.42 135.73 440.82 127.81 439.34 119.55 C 437.65 108.59 440.36 97.30 445.66 87.67 C 449.90 80.10 458.52 75.61 467.10 75.61 C 475.15 74.86 482.59 79.52 487.71 85.37 C 490.77 88.77 492.06 93.23 493.57 97.44 C 496.90 90.37 499.13 82.85 501.85 75.54 C 496.11 73.12 489.96 71.90 484.03 70.05 C 476.57 67.76 468.64 67.54 460.93 68.36 C 444.21 71.18 428.92 82.40 421.90 97.93 M 169.10 71.13 C 172.03 73.07 175.19 74.92 177.18 77.91 C 179.45 81.50 180.15 85.87 180.08 90.06 C 180.00 111.74 180.16 133.43 180.00 155.11 C 179.94 160.57 175.39 164.09 172.08 167.80 C 177.72 168.06 183.37 168.02 189.02 167.98 C 194.37 167.86 199.70 168.79 205.05 168.38 C 217.12 167.33 229.31 168.74 241.34 167.43 C 244.70 161.43 246.55 154.68 249.36 148.41 C 250.54 146.36 249.75 144.20 248.12 142.72 C 243.48 148.56 237.88 153.86 230.93 156.83 C 221.17 160.84 209.75 161.43 199.95 157.20 C 199.86 147.49 199.57 137.78 199.84 128.07 C 200.02 124.27 199.61 120.39 200.60 116.67 C 203.46 116.95 206.43 117.44 208.83 119.16 C 212.98 121.74 215.04 126.34 217.67 130.25 C 220.27 123.69 221.98 116.82 224.22 110.13 C 225.10 107.76 225.21 105.23 224.99 102.73 C 217.77 107.79 208.83 110.95 199.95 109.54 C 199.62 103.05 199.73 96.55 199.80 90.06 C 199.58 86.34 201.91 82.95 204.96 81.03 C 210.94 77.49 218.60 77.83 225.03 79.90 C 232.03 82.18 236.69 88.16 240.79 93.91 C 243.85 86.46 247.28 79.11 249.23 71.27 C 222.54 70.60 195.76 69.31 169.10 71.13 M 254.74 71.04 C 257.88 74.46 261.17 78.01 262.53 82.58 C 264.33 88.56 263.27 94.88 263.57 101.01 C 264.21 110.01 264.05 119.04 263.91 128.05 C 262.86 137.30 264.73 146.89 261.90 155.90 C 260.48 160.74 256.64 164.21 252.84 167.26 C 262.07 167.62 271.31 167.40 280.55 167.39 C 278.53 165.05 275.85 162.94 275.20 159.76 C 274.28 153.89 274.43 147.93 274.44 142.01 C 274.51 126.78 274.29 111.55 274.55 96.32 C 285.48 120.45 294.74 145.34 306.15 169.26 C 317.61 144.19 327.62 118.48 339.10 93.43 C 339.29 113.62 340.07 133.83 339.13 154.02 C 338.64 159.81 333.96 163.91 329.78 167.38 C 343.28 167.30 356.82 167.85 370.31 167.10 C 366.23 164.23 362.52 160.27 362.04 155.06 C 361.25 134.70 362.25 114.32 361.74 93.96 C 361.94 88.79 361.05 83.25 363.46 78.45 C 364.83 75.57 367.42 73.57 369.62 71.36 C 359.73 71.09 349.83 71.34 339.94 71.22 C 338.82 71.48 336.84 70.75 336.38 72.20 C 328.07 91.32 320.26 110.67 311.75 129.71 C 303.04 110.31 295.42 90.42 286.61 71.05 C 275.99 70.96 265.36 70.99 254.74 71.04 M 379.63 71.11 C 380.60 73.71 383.57 74.72 384.90 77.10 C 387.53 80.88 387.08 85.65 387.08 90.01 C 387.05 109.33 387.07 128.66 387.07 147.98 C 387.01 151.94 387.46 155.98 386.64 159.89 C 386.06 162.65 384.20 164.84 382.49 166.99 C 393.29 168.31 404.24 167.93 415.05 166.96 C 413.19 164.67 411.12 162.22 410.99 159.13 C 410.52 153.76 410.83 148.36 410.75 142.99 C 411.10 128.00 410.86 113.02 410.95 98.03 C 411.01 91.68 410.32 85.30 411.13 78.98 C 411.54 76.00 413.61 73.69 415.27 71.31 C 403.40 70.78 391.51 71.15 379.63 71.11 Z" />
</g>
<g id="#3db072ff">
<path fill="#3db072" opacity="1.00" d=" M 96.63 82.69 C 105.96 73.49 118.84 67.95 131.99 68.03 C 143.77 67.42 154.72 72.47 165.87 75.46 C 163.03 82.81 160.66 90.35 157.61 97.62 C 155.77 92.71 154.08 87.49 150.31 83.66 C 144.37 76.95 134.70 74.36 126.03 75.81 C 119.61 76.96 114.25 81.28 110.42 86.39 C 105.13 93.41 103.34 102.40 102.92 111.00 C 102.29 123.62 107.26 136.67 116.93 144.96 C 128.81 154.62 146.97 156.26 160.04 148.05 C 162.75 146.33 165.29 144.32 168.25 143.01 C 166.92 148.36 163.16 152.57 159.57 156.56 C 151.76 164.88 140.57 170.48 129.00 170.04 C 116.57 170.79 104.97 164.23 96.26 155.87 C 76.04 137.16 76.38 101.25 96.63 82.69 Z" />
<path fill="#3db072" opacity="1.00" d=" M 421.90 97.93 C 428.92 82.40 444.21 71.18 460.93 68.36 C 468.64 67.54 476.57 67.76 484.03 70.05 C 489.96 71.90 496.11 73.12 501.85 75.54 C 499.13 82.85 496.90 90.37 493.57 97.44 C 492.06 93.23 490.77 88.77 487.71 85.37 C 482.59 79.52 475.15 74.86 467.10 75.61 C 458.52 75.61 449.90 80.10 445.66 87.67 C 440.36 97.30 437.65 108.59 439.34 119.55 C 440.82 127.81 444.42 135.73 449.92 142.09 C 458.76 151.70 473.03 154.96 485.58 152.51 C 492.68 151.09 498.50 146.61 504.20 142.43 C 503.89 145.00 503.07 147.51 501.53 149.62 C 494.05 159.91 483.03 168.49 470.05 169.87 C 464.48 170.15 458.74 170.40 453.39 168.59 C 439.49 164.24 427.19 153.90 421.69 140.27 C 416.14 126.89 415.87 111.19 421.90 97.93 Z" />
<path fill="#3db072" opacity="1.00" d=" M 169.10 71.13 C 195.76 69.31 222.54 70.60 249.23 71.27 C 247.28 79.11 243.85 86.46 240.79 93.91 C 236.69 88.16 232.03 82.18 225.03 79.90 C 218.60 77.83 210.94 77.49 204.96 81.03 C 201.91 82.95 199.58 86.34 199.80 90.06 C 199.73 96.55 199.62 103.05 199.95 109.54 C 208.83 110.95 217.77 107.79 224.99 102.73 C 225.21 105.23 225.10 107.76 224.22 110.13 C 221.98 116.82 220.27 123.69 217.67 130.25 C 215.04 126.34 212.98 121.74 208.83 119.16 C 206.43 117.44 203.46 116.95 200.60 116.67 C 199.61 120.39 200.02 124.27 199.84 128.07 C 199.57 137.78 199.86 147.49 199.95 157.20 C 209.75 161.43 221.17 160.84 230.93 156.83 C 237.88 153.86 243.48 148.56 248.12 142.72 C 249.75 144.20 250.54 146.36 249.36 148.41 C 246.55 154.68 244.70 161.43 241.34 167.43 C 229.31 168.74 217.12 167.33 205.05 168.38 C 199.70 168.79 194.37 167.86 189.02 167.98 C 183.37 168.02 177.72 168.06 172.08 167.80 C 175.39 164.09 179.94 160.57 180.00 155.11 C 180.16 133.43 180.00 111.74 180.08 90.06 C 180.15 85.87 179.45 81.50 177.18 77.91 C 175.19 74.92 172.03 73.07 169.10 71.13 Z" />
<path fill="#3db072" opacity="1.00" d=" M 254.74 71.04 C 265.36 70.99 275.99 70.96 286.61 71.05 C 295.42 90.42 303.04 110.31 311.75 129.71 C 320.26 110.67 328.07 91.32 336.38 72.20 C 336.84 70.75 338.82 71.48 339.94 71.22 C 349.83 71.34 359.73 71.09 369.62 71.36 C 367.42 73.57 364.83 75.57 363.46 78.45 C 361.05 83.25 361.94 88.79 361.74 93.96 C 362.25 114.32 361.25 134.70 362.04 155.06 C 362.52 160.27 366.23 164.23 370.31 167.10 C 356.82 167.85 343.28 167.30 329.78 167.38 C 333.96 163.91 338.64 159.81 339.13 154.02 C 340.07 133.83 339.29 113.62 339.10 93.43 C 327.62 118.48 317.61 144.19 306.15 169.26 C 294.74 145.34 285.48 120.45 274.55 96.32 C 274.29 111.55 274.51 126.78 274.44 142.01 C 274.43 147.93 274.28 153.89 275.20 159.76 C 275.85 162.94 278.53 165.05 280.55 167.39 C 271.31 167.40 262.07 167.62 252.84 167.26 C 256.64 164.21 260.48 160.74 261.90 155.90 C 264.73 146.89 262.86 137.30 263.91 128.05 C 264.05 119.04 264.21 110.01 263.57 101.01 C 263.27 94.88 264.33 88.56 262.53 82.58 C 261.17 78.01 257.88 74.46 254.74 71.04 Z" />
<path fill="#3db072" opacity="1.00" d=" M 379.63 71.11 C 391.51 71.15 403.40 70.78 415.27 71.31 C 413.61 73.69 411.54 76.00 411.13 78.98 C 410.32 85.30 411.01 91.68 410.95 98.03 C 410.86 113.02 411.10 128.00 410.75 142.99 C 410.83 148.36 410.52 153.76 410.99 159.13 C 411.12 162.22 413.19 164.67 415.05 166.96 C 404.24 167.93 393.29 168.31 382.49 166.99 C 384.20 164.84 386.06 162.65 386.64 159.89 C 387.46 155.98 387.01 151.94 387.07 147.98 C 387.07 128.66 387.05 109.33 387.08 90.01 C 387.08 85.65 387.53 80.88 384.90 77.10 C 383.57 74.72 380.60 73.71 379.63 71.11 Z" />
</g>
</svg>
